<?xml version="1.0" encoding="UTF-8"?>
<svg width="50px" height="50px" viewBox="0 0 50 50" version="1.1" xmlns="http://www.w3.org/2000/svg" xmlns:xlink="http://www.w3.org/1999/xlink">
    <!-- Generator: Sketch 54.1 (76490) - https://sketchapp.com -->
    <title>Artboard</title>
    <desc>Created with Sketch.</desc>
    <g id="Artboard" stroke="none" stroke-width="1" fill="none" fill-rule="evenodd">
        <rect id="Rectangle" fill="#FFFFFF" x="0" y="0" width="50" height="50"></rect>
        <path d="M34.68,10 C36.3600084,10 37.7533278,10.4866618 38.86,11.46 C39.9666722,12.4333382 40.52,13.7466584 40.52,15.4 C40.52,16.6800064 40.1733368,17.7933286 39.48,18.74 C38.7866632,19.6866714 37.8666724,20.4399972 36.72,21 C35.7066616,21.4800024 33.733348,22.1733288 30.8,23.08 C32.2933408,23.7200032 33.3933298,24.6333274 34.1,25.82 C34.8066702,27.0066726 35.16,28.3599924 35.16,29.88 C35.16,31.5333416 34.6666716,33.093326 33.68,34.56 C32.6933284,36.026674 31.2800092,37.2066622 29.44,38.1 C27.5999908,38.9933378 25.4400124,39.44 22.96,39.44 C20.6399884,39.44 18.4866766,39.0333374 16.5,38.22 C14.5133234,37.4066626 12.9333392,36.2466742 11.76,34.74 C10.5866608,33.2333258 10,31.48001 10,29.48 C10,27.7199912 10.433329,26.2333394 11.3,25.02 C12.166671,23.8066606 13.1599944,22.8866698 14.28,22.26 C15.4000056,21.6333302 16.4399952,21.2000012 17.4,20.96 C16.0933268,20.3999972 15.0933368,19.653338 14.4,18.72 C13.7066632,17.786662 13.36,16.8133384 13.36,15.8 C13.36,14.9199956 13.6199974,14.1000038 14.14,13.34 C14.6600026,12.5799962 15.4333282,11.966669 16.46,11.5 C17.4866718,11.033331 18.7066596,10.8 20.12,10.8 C21.9066756,10.8 23.2933284,11.199996 24.28,12 C24.7600024,12.400002 25.1266654,12.8466642 25.38,13.34 C25.6333346,13.8333358 25.76,14.3066644 25.76,14.76 C25.76,15.4000032 25.5333356,15.9133314 25.08,16.3 C24.6266644,16.6866686 24.1066696,16.88 23.52,16.88 C22.9599972,16.88 22.4733354,16.7000018 22.06,16.34 C21.6466646,15.9799982 21.44,15.4933364 21.44,14.88 C21.44,14.2933304 21.639998,13.7933354 22.04,13.38 C22.440002,12.9666646 22.9466636,12.7333336 23.56,12.68 C23.426666,12.3333316 23.0866694,12.0333346 22.54,11.78 C21.9933306,11.5266654 21.320004,11.4 20.52,11.4 C19.1333264,11.4 18.0133376,11.8199958 17.16,12.66 C16.3066624,13.5000042 15.88,14.6666592 15.88,16.16 C15.88,17.9466756 16.5599932,19.4666604 17.92,20.72 C18.853338,20.5599992 19.6799964,20.48 20.4,20.48 C20.8800024,20.48 21.2666652,20.5599992 21.56,20.72 C21.8533348,20.8800008 22,21.1066652 22,21.4 C22,21.6400012 21.900001,21.826666 21.7,21.96 C21.499999,22.093334 21.2266684,22.16 20.88,22.16 C20.4533312,22.16 20.0133356,22.0800008 19.56,21.92 C19.1066644,21.7599992 18.5733364,21.546668 17.96,21.28 C14.493316,22.3200052 12.76,24.50665 12.76,27.84 C12.76,29.6266756 13.226662,31.1733268 14.16,32.48 C15.093338,33.7866732 16.3733252,34.7799966 18,35.46 C19.6266748,36.1400034 21.4533232,36.48 23.48,36.48 C25.3733428,36.48 27.1266586,36.180003 28.74,35.58 C30.3533414,34.979997 31.6333286,34.1266722 32.58,33.02 C33.5266714,31.9133278 34,30.626674 34,29.16 C34,28.093328 33.7200028,27.0133388 33.16,25.92 C32.5999972,24.8266612 31.5333412,23.9733364 29.96,23.36 C27.8799896,24.0000032 26.3466716,24.5066648 25.36,24.88 C24.2399944,25.3066688 23.3733364,25.7933306 22.76,26.34 C22.1466636,26.8866694 21.84,27.559996 21.84,28.36 C21.84,29.3200048 22.2333294,30.0933304 23.02,30.68 C23.8066706,31.2666696 24.6399956,31.56 25.52,31.56 C25.9733356,31.56 26.466664,31.4800008 27,31.32 C27.533336,31.1599992 27.8399996,30.946668 27.92,30.68 C27.4133308,30.5733328 26.9733352,30.3600016 26.6,30.04 C26.2266648,29.7199984 26.04,29.2533364 26.04,28.64 C26.04,27.9999968 26.2466646,27.4933352 26.66,27.12 C27.0733354,26.7466648 27.5999968,26.56 28.24,26.56 C28.8800032,26.56 29.3933314,26.759998 29.78,27.16 C30.1666686,27.560002 30.36,28.0799968 30.36,28.72 C30.36,29.786672 29.8666716,30.6266636 28.88,31.24 C27.8933284,31.8533364 26.800006,32.16 25.6,32.16 C24.2933268,32.16 23.140005,31.7666706 22.14,30.98 C21.139995,30.1933294 20.64,29.0266744 20.64,27.48 C20.64,26.1199932 21.0999954,24.9666714 22.02,24.02 C22.9400046,23.0733286 24.3199908,22.2800032 26.16,21.64 L29,20.8 C30.600008,20.3466644 31.933328,19.9466684 33,19.6 C34.066672,19.2533316 35.0399956,18.880002 35.92,18.48 C37.2000064,17.8933304 38.0933308,17.2933364 38.6,16.68 C39.1066692,16.0666636 39.36,15.3866704 39.36,14.64 C39.36,13.5199944 38.9000046,12.5666706 37.98,11.78 C37.0599954,10.9933294 35.9733396,10.6 34.72,10.6 C34.05333,10.6 33.653334,10.7199988 33.52,10.96 C33.8666684,11.1200008 34.139999,11.3799982 34.34,11.74 C34.540001,12.1000018 34.64,12.4533316 34.64,12.8 C34.64,13.3600028 34.4200022,13.8266648 33.98,14.2 C33.5399978,14.5733352 33.0133364,14.76 32.4,14.76 C31.8399972,14.76 31.3466688,14.5866684 30.92,14.24 C30.4933312,13.8933316 30.28,13.4000032 30.28,12.76 C30.28,11.7999952 30.7266622,11.1000022 31.62,10.66 C32.5133378,10.2199978 33.5333276,10 34.68,10 Z" id="&amp;" fill="#021114" fill-rule="nonzero"></path>
    </g>
</svg>